<svg width="245" height="246" xmlns="http://www.w3.org/2000/svg" xmlns:xlink="http://www.w3.org/1999/xlink" xml:space="preserve" overflow="hidden"><defs><clipPath id="clip0"><rect x="449" y="1707" width="90" height="84"/></clipPath><clipPath id="clip1"><rect x="449" y="1707" width="90" height="84"/></clipPath><clipPath id="clip2"><rect x="449" y="1707" width="90" height="84"/></clipPath><clipPath id="clip3"><rect x="449" y="1707" width="90" height="84"/></clipPath><clipPath id="clip4"><rect x="506" y="1707" width="33" height="33"/></clipPath><clipPath id="clip5"><rect x="506" y="1707" width="33" height="33"/></clipPath><clipPath id="clip6"><rect x="506" y="1707" width="33" height="33"/></clipPath></defs><g transform="translate(-368 -1628)"><path d="M370.5 1751C370.5 1684.45 424.226 1630.5 490.5 1630.5 556.774 1630.5 610.5 1684.45 610.5 1751 610.5 1817.55 556.774 1871.5 490.5 1871.5 424.226 1871.5 370.5 1817.55 370.5 1751Z" stroke="#172C51" stroke-width="4.58333" stroke-miterlimit="8" fill="#2F5597" fill-rule="evenodd"/><path d="M424 1749C424 1711.44 454.221 1681 491.5 1681 528.779 1681 559 1711.44 559 1749 559 1786.56 528.779 1817 491.5 1817 454.221 1817 424 1786.56 424 1749Z" fill="#FFFFFF" fill-rule="evenodd"/><g clip-path="url(#clip0)"><g clip-path="url(#clip1)"><g clip-path="url(#clip2)"><g clip-path="url(#clip3)"><path d="M29.7792 54.0213 52.5357 54.0213 52.5357 77.0478 29.7792 77.0478Z" fill="#002060" transform="matrix(1 0 0 1.00807 421.166 1691.14)"/><path d="M78.6009 53.6161 101.357 53.6161 101.357 77.2504 78.6009 77.2504Z" fill="#002060" transform="matrix(1 0 0 1.00807 421.166 1691.14)"/><path d="M53.0759 32.0076 77.7906 32.0076 77.7906 52.9408 53.0759 52.9408Z" fill="#002060" transform="matrix(1 0 0 1.00807 421.166 1691.14)"/><path d="M53.0759 77.6556 78.4659 77.6556 78.4659 97.9811 53.0759 97.9811Z" fill="#002060" transform="matrix(1 0 0 1.00807 421.166 1691.14)"/><path d="M29.7792 34.9784C29.7792 32.9274 31.4419 31.2648 33.4928 31.2648L98.0493 31.2648C100.1 31.2648 101.763 32.9274 101.763 34.9784L101.763 94.4022C101.763 96.4536 100.1 98.1161 98.0493 98.1161L33.4928 98.1161C31.4419 98.1161 29.7792 96.4536 29.7792 94.4022Z" stroke="#002060" stroke-width="1.85698" stroke-miterlimit="8" fill="none" fill-rule="evenodd" transform="matrix(1 0 0 1.00807 421.166 1691.14)"/><path d="M52.4682 31.3323 52.9324 97.9514" stroke="#002060" stroke-width="1.85698" stroke-miterlimit="8" fill="none" fill-rule="evenodd" transform="matrix(1 0 0 1.00807 421.166 1691.14)"/><path d="M78.3308 31.4674 78.7954 98.0864" stroke="#002060" stroke-width="1.85698" stroke-miterlimit="8" fill="none" fill-rule="evenodd" transform="matrix(1 0 0 1.00807 421.166 1691.14)"/><path d="M29.6442 53.4135 101.912 53.4135" stroke="#002060" stroke-width="1.85698" stroke-miterlimit="8" fill="none" fill-rule="evenodd" transform="matrix(1 0 0 1.00807 421.166 1691.14)"/><path d="M29.6442 77.3179 101.912 77.3179" stroke="#002060" stroke-width="1.85698" stroke-miterlimit="8" fill="none" fill-rule="evenodd" transform="matrix(1 0 0 1.00807 421.166 1691.14)"/><g clip-path="url(#clip4)"><g clip-path="url(#clip5)"><g clip-path="url(#clip6)"><path d="M111.422 30.2965 112.135 29.5841 109.997 27.447 106.083 23.5321 103.946 21.3949 103.233 22.1073 101.808 23.5321 89.2505 36.09C88.5949 36.7457 88.1154 37.559 87.8507 38.4479L85.619 46.0381C85.4616 46.5677 85.6068 47.1414 86.0039 47.5323 86.4009 47.9231 86.9682 48.0681 87.4976 47.9168L95.0821 45.6851C95.9708 45.4203 96.7838 44.9412 97.4395 44.2855L109.997 31.7276 111.422 30.2965ZM95.6433 40.9128 95.0693 42.3439C94.8174 42.5393 94.5332 42.6843 94.2306 42.7789L89.3012 44.2288 90.751 39.3053C90.8395 38.9963 90.9907 38.7127 91.1859 38.4668L92.6168 37.8931 92.6168 39.9104C92.6168 40.4652 93.0705 40.9191 93.6256 40.9191L95.6433 40.9191ZM108.421 16.9126 107.514 17.8267 106.089 19.2515 105.371 19.9638 107.508 22.101 111.422 26.0159 113.559 28.153 114.272 27.4406 115.697 26.0159 116.611 25.1018C118.187 23.5257 118.187 20.9725 116.611 19.3965L114.133 16.9126C112.557 15.3365 110.004 15.3365 108.428 16.9126ZM105.433 27.5037 96.355 36.5818C95.9647 36.9727 95.3212 36.9727 94.9309 36.5818 94.5399 36.1909 94.5399 35.5479 94.9309 35.157L104.008 26.079C104.399 25.6881 105.042 25.6881 105.433 26.079 105.824 26.4698 105.824 27.1129 105.433 27.5037Z" fill="#002060" transform="matrix(1 0 0 1.00807 421.166 1691.14)"/></g></g></g><path d="M100.03 30.1187 101.476 31.5619 99.3654 33.6755 97.9196 32.2323Z" fill="#FFFFFF" fill-rule="evenodd" transform="matrix(1 0 0 1.00807 421.166 1691.14)"/><text fill="#FFFFFF" font-family="Calibri,Calibri_MSFontService,sans-serif" font-weight="400" font-size="50" transform="matrix(0.0477882 0.0480936 -0.0477088 0.0481736 519.417 1724)">0</text></g></g></g></g><path d="M404 1750C404 1701.4 442.951 1662 491 1662 539.049 1662 578 1701.4 578 1750 578 1798.6 539.049 1838 491 1838 442.951 1838 404 1798.6 404 1750ZM413.3 1750C413.3 1793.46 448.088 1828.7 491 1828.7 533.912 1828.7 568.7 1793.46 568.7 1750 568.7 1706.54 533.912 1671.3 491 1671.3 448.088 1671.3 413.3 1706.54 413.3 1750Z" fill="#FFFFFF" fill-rule="evenodd"/></g></svg>