<svg width="1318" height="1236" xmlns="http://www.w3.org/2000/svg" xmlns:xlink="http://www.w3.org/1999/xlink" xml:space="preserve" overflow="hidden"><defs><clipPath id="clip0"><rect x="427" y="130" width="1318" height="1236"/></clipPath></defs><g clip-path="url(#clip0)" transform="translate(-427 -130)"><path d="M445 412.994C445 382.622 469.622 358 499.994 358L1447.01 358C1477.38 358 1502 382.622 1502 412.994L1502 1293.01C1502 1323.38 1477.38 1348 1447.01 1348L499.994 1348C469.622 1348 445 1323.38 445 1293.01Z" stroke="#FFFFFF" stroke-width="27.5" stroke-miterlimit="8" fill="#FFFFFF" fill-rule="evenodd"/><rect x="441" y="696" width="337" height="341" fill="#2F5597"/><rect x="1164" y="690" width="337" height="351" fill="#2F5597"/><rect x="786" y="370" width="366" height="311" fill="#2F5597"/><rect x="786" y="1047" width="376" height="300" fill="#2F5597"/><path d="M441 414.995C441 384.622 465.622 360 495.995 360L1452.01 360C1482.38 360 1507 384.622 1507 414.995L1507 1295C1507 1325.38 1482.38 1350 1452.01 1350L495.995 1350C465.622 1350 441 1325.38 441 1295Z" stroke="#002060" stroke-width="27.5" stroke-miterlimit="8" fill="none" fill-rule="evenodd"/><path d="M777 361 783.875 1347.56" stroke="#002060" stroke-width="27.5" stroke-miterlimit="8" fill="none" fill-rule="evenodd"/><path d="M1160 365 1166.88 1351.56" stroke="#002060" stroke-width="27.5" stroke-miterlimit="8" fill="none" fill-rule="evenodd"/><path d="M439 688 1509.21 688" stroke="#002060" stroke-width="27.5" stroke-miterlimit="8" fill="none" fill-rule="evenodd"/><path d="M439 1042 1509.21 1042" stroke="#002060" stroke-width="27.5" stroke-miterlimit="8" fill="none" fill-rule="evenodd"/><g><g><g><path d="M85.9375 0C77.2949 0 70.3125 6.98242 70.3125 15.625 70.3125 24.2676 77.2949 31.25 85.9375 31.25L93.75 31.25 93.75 48.0469C45.0683 55.5664 7.8125 97.6562 7.8125 148.437 7.8125 204.541 53.2715 250 109.375 250 165.478 250 210.937 204.541 210.937 148.437 210.937 128.027 204.932 109.033 194.58 93.164L206.348 81.3965C212.451 75.2929 212.451 65.3808 206.348 59.2773 200.244 53.1738 190.332 53.1738 184.228 59.2773L173.682 69.8242C159.961 58.5937 143.311 50.8789 125 48.0469L125 31.25 132.812 31.25C141.455 31.25 148.437 24.2676 148.437 15.625 148.437 6.98242 141.455 0 132.812 0L109.375 0 85.9375 0ZM121.094 93.75 121.094 156.25C121.094 162.744 115.869 167.969 109.375 167.969 102.881 167.969 97.6562 162.744 97.6562 156.25L97.6562 93.75C97.6562 87.2558 102.881 82.0312 109.375 82.0312 115.869 82.0312 121.094 87.2558 121.094 93.75Z" fill="#002060" transform="matrix(1.00114 0 0 1 502 395)"/></g></g></g><g><g><g><path d="M382.252 215.209 392.78 204.681 361.197 173.099 303.342 115.244 271.76 83.6614 261.232 94.1889 240.177 115.244 54.5942 300.827C44.9051 310.516 37.8246 322.534 33.9117 335.67L0.931641 447.84C-1.39746 455.666 0.745313 464.143 6.61465 469.92 12.484 475.696 20.8688 477.839 28.6945 475.603L140.771 442.623C153.907 438.71 165.925 431.629 175.614 421.94L361.197 236.357 382.252 215.209ZM149.063 372.097 140.585 393.246C136.858 396.134 132.666 398.276 128.194 399.674L55.3395 421.102 76.7672 348.341C78.0715 343.775 80.3074 339.583 83.1955 335.95L104.344 327.472 104.344 357.284C104.344 365.483 111.052 372.191 119.25 372.191L149.063 372.191ZM337.906 17.4217 324.491 30.9305 303.435 51.9856 292.815 62.5131 324.397 94.0957 382.252 151.951 413.835 183.533 424.362 173.006 445.418 151.951 458.926 138.442C482.217 115.151 482.217 77.4194 458.926 54.1283L422.313 17.4217C399.022-5.86934 361.29-5.86934 337.999 17.4217ZM293.746 173.937 159.59 308.094C153.814 313.87 144.311 313.87 138.535 308.094 132.759 302.317 132.759 292.815 138.535 287.039L272.691 152.882C278.467 147.106 287.97 147.106 293.746 152.882 299.523 158.658 299.523 168.161 293.746 173.937Z" fill="#002060" transform="matrix(1.0021 0 0 1 1267 130)"/></g></g></g><g><g><g><path d="M207.625 28.3125C207.625 12.6759 220.301-4.1911e-15 235.938 0 251.574-4.1911e-15 264.25 12.6759 264.25 28.3125 264.25 43.9491 251.574 56.625 235.938 56.625 220.301 56.625 207.625 43.9491 207.625 28.3125ZM75.5 75.5C75.5 65.0598 83.9348 56.625 94.375 56.625L188.396 56.625C214.113 56.625 226.5 88.1227 207.743 105.641L163.859 146.576 199.367 182.085C204.676 187.393 207.684 194.59 207.684 202.081L207.684 245.375C207.684 255.815 199.249 264.25 188.809 264.25 178.369 264.25 169.934 255.815 169.934 245.375L169.934 206.033 123.985 160.143C108.295 144.453 109.475 118.677 126.522 104.461L138.554 94.434 94.375 94.434C83.9348 94.434 75.5 85.9993 75.5 75.559ZM48.0133 208.451 99.2708 157.193C101.984 163.092 105.759 168.577 110.655 173.414L123.513 186.273 74.7332 235.053C67.3602 242.426 55.3864 242.426 48.0133 235.053 40.6403 227.68 40.6403 215.706 48.0133 208.333ZM238.238 264.545C243.311 265.784 246.378 270.915 245.08 275.988L244.844 276.991C241.187 291.678 227.975 302 212.816 302L160.438 302C155.247 302 151 297.753 151 292.563 151 287.372 155.247 283.125 160.438 283.125L212.816 283.125C219.304 283.125 224.967 278.701 226.559 272.39L226.795 271.387C228.034 266.315 233.165 263.247 238.238 264.545ZM79.7469 282.122 76.0899 283.951C63.3493 290.321 48.0133 287.844 37.986 277.758L2.77227 242.603C-0.884766 238.946-0.884766 232.929 2.77227 229.272 6.4293 225.615 12.4457 225.615 16.1027 229.272L51.2575 264.427C55.5633 268.733 62.1696 269.795 67.5961 267.081L71.2532 265.253C75.9129 262.893 81.5754 264.84 83.9348 269.5 86.2942 274.16 84.3477 279.822 79.6879 282.181Z" fill="#002060" transform="matrix(1.00284 0 0 1 836 713)"/></g></g></g><g><g><g><path d="M113.312 0C120.04 0 125.453 5.41269 125.453 12.1406L125.453 35.4607 137.088 23.826C141.843 19.0709 149.532 19.0709 154.236 23.826 158.941 28.581 158.992 36.2701 154.236 40.9746L125.402 69.8086 125.402 108.507 158.89 89.183 169.463 49.8271C171.183 43.3521 177.86 39.5076 184.335 41.2275 190.81 42.9474 194.655 49.6248 192.935 56.0998L188.685 71.9332 207.453 61.1078C213.27 57.7691 220.706 59.742 224.045 65.5593 227.384 71.3767 225.411 78.8128 219.593 82.1515L200.826 92.9769 216.761 97.2261C223.236 98.946 227.08 105.623 225.36 112.098 223.64 118.573 216.963 122.418 210.488 120.698L171.132 110.126 137.594 129.5 171.082 148.824 210.437 138.251C216.912 136.531 223.59 140.376 225.31 146.851 227.03 153.326 223.185 160.003 216.71 161.723L200.826 166.023 219.593 176.848C225.411 180.187 227.384 187.623 224.045 193.441 220.706 199.258 213.27 201.231 207.453 197.892L188.685 187.067 192.935 203.001C194.655 209.476 190.81 216.154 184.335 217.874 177.86 219.593 171.183 215.749 169.463 209.274L158.89 169.918 125.453 150.544 125.453 189.242 154.287 218.076C159.042 222.831 159.042 230.52 154.287 235.224 149.532 239.929 141.843 239.98 137.138 235.224L125.504 223.59 125.504 246.859C125.504 253.587 120.091 259 113.363 259 106.635 259 101.222 253.587 101.222 246.859L101.222 223.539 89.5876 235.174C84.8326 239.929 77.1435 239.929 72.439 235.174 67.7345 230.419 67.6839 222.73 72.439 218.025L101.273 189.191 101.273 150.544 67.7851 169.867 57.2127 209.223C55.4927 215.698 48.8154 219.543 42.3404 217.823 35.8654 216.103 32.0209 209.426 33.7408 202.951L37.9394 187.067 19.1721 197.892C13.3547 201.231 5.91855 199.258 2.57988 193.441-0.758789 187.623 1.21406 180.187 7.03144 176.848L25.7988 166.023 9.86425 161.774C3.38926 160.054-0.455273 153.376 1.26465 146.901 2.98457 140.426 9.66191 136.582 16.1369 138.302L55.4927 148.874 89.0312 129.5 55.5433 110.176 16.1369 120.698C9.66191 122.418 2.98457 118.573 1.26465 112.098-0.455273 105.623 3.38926 98.946 9.86425 97.2261L25.7988 92.9769 7.03144 82.1515C1.21406 78.8128-0.758789 71.3767 2.57988 65.5593 5.91855 59.742 13.3547 57.7691 19.1721 61.1078L37.9394 71.9332 33.6902 55.9986C31.9703 49.5236 35.8148 42.8463 42.2898 41.1263 48.7648 39.4064 55.4422 43.2509 57.1621 49.7259L67.7345 89.0818 101.172 108.456 101.172 69.758 72.3378 40.9746C67.5828 36.2195 67.5828 28.5305 72.3378 23.826 77.0929 19.1215 84.782 19.0709 89.4865 23.826L101.121 35.4607 101.121 12.1406C101.121 5.41269 106.534 0 113.262 0Z" fill="#002060" transform="matrix(1.00165 0 0 1 1223 1071)"/></g></g></g><g><g><g><g><path d="M66.065 893.199C66.065 759.417 174.516 650.965 308.299 650.96L308.301 766.024C238.065 766.024 181.128 822.963 181.128 893.199Z" fill="#002060" fill-rule="evenodd" transform="matrix(1.00062 0 0 1 431.894 426.039)"/><path d="M121.564 894.542C120.817 791.895 203.917 708.085 307.171 707.34 309.157 707.327 311.143 707.345 313.128 707.393" stroke="#FFFFFF" stroke-width="12.1119" stroke-miterlimit="8" fill="none" fill-rule="evenodd" transform="matrix(1.00062 0 0 1 431.894 426.039)"/></g></g></g></g><path d="M1481.34 342.776 1502.75 364.148 1471.5 395.449 1450.09 374.077Z" fill="#FFFFFF" fill-rule="evenodd"/><text fill="#FFFFFF" font-family="Calibri,Calibri_MSFontService,sans-serif" font-weight="400" font-size="50" transform="matrix(0.707694 0.706519 -0.706519 0.707694 1455 372)">0</text></g></svg>