<svg width="246" height="245" xmlns="http://www.w3.org/2000/svg" xmlns:xlink="http://www.w3.org/1999/xlink" xml:space="preserve" overflow="hidden"><defs><clipPath id="clip0"><path d="M274.58 1425.12 343.399 1462.15 301.706 1539.64 232.888 1502.62Z" fill-rule="evenodd" clip-rule="evenodd"/></clipPath><clipPath id="clip1"><path d="M274.58 1425.12 343.399 1462.15 301.706 1539.64 232.888 1502.62Z" fill-rule="evenodd" clip-rule="evenodd"/></clipPath><clipPath id="clip2"><path d="M262.307 1408.05 397.314 1480.69 342.51 1582.55 207.502 1509.92Z" fill-rule="evenodd" clip-rule="evenodd"/></clipPath></defs><g transform="translate(-150 -1358)"><path d="M152.5 1480.5C152.5 1414.23 206.45 1360.5 273 1360.5 339.55 1360.5 393.5 1414.23 393.5 1480.5 393.5 1546.77 339.55 1600.5 273 1600.5 206.45 1600.5 152.5 1546.77 152.5 1480.5Z" stroke="#172C51" stroke-width="4.58333" stroke-miterlimit="8" fill="#2F5597" fill-rule="evenodd"/><path d="M206 1478.5C206 1441.22 236.445 1411 274 1411 311.555 1411 342 1441.22 342 1478.5 342 1515.78 311.555 1546 274 1546 236.445 1546 206 1515.78 206 1478.5Z" fill="#FFFFFF" fill-rule="evenodd"/><path d="M187 1478.5C187 1430.18 225.951 1391 274 1391 322.049 1391 361 1430.18 361 1478.5 361 1526.82 322.049 1566 274 1566 225.951 1566 187 1526.82 187 1478.5ZM196.3 1478.5C196.3 1521.69 231.088 1556.7 274 1556.7 316.912 1556.7 351.7 1521.69 351.7 1478.5 351.7 1435.31 316.912 1400.3 274 1400.3 231.088 1400.3 196.3 1435.31 196.3 1478.5Z" fill="#FFFFFF" fill-rule="evenodd"/><g clip-path="url(#clip0)"><g clip-path="url(#clip1)"><g clip-path="url(#clip2)"><path d="M58.2181 103.745C56.8867 103.382 55.7628 102.828 53.4631 101.428 52.5813 100.892 51.8205 100.459 51.7686 100.459 51.6994 100.459 50.6966 99.8715 49.5035 99.1626 48.3277 98.4537 47.3249 97.8658 47.273 97.8658 47.2211 97.8658 46.4085 97.399 45.4575 96.8284 44.5065 96.2578 43.6938 95.7909 43.6419 95.7909 43.5901 95.7909 42.5872 95.203 41.3941 94.4941 40.2011 93.7852 39.1982 93.1973 39.1463 93.1973 39.1117 93.1973 38.0916 92.6094 36.8985 91.9005 35.7055 91.1916 34.6853 90.6037 34.6334 90.6037 34.5816 90.6037 33.7689 90.1368 32.8179 89.5662 31.8842 88.9956 31.0715 88.5288 31.0024 88.5288 30.9505 88.5288 29.9476 87.9409 28.7546 87.232 27.5788 86.5231 26.5759 85.9352 26.5241 85.9352 26.4722 85.9352 25.7633 85.5202 24.9333 85.0361 21.5616 83.013 20.0054 80.4713 19.9881 77.0304 19.9709 74.8691 20.4204 73.6587 22.5126 70.2352 22.8757 69.6473 23.1696 69.1285 23.1696 69.094 23.1696 69.0421 23.6192 68.2467 24.1725 67.313 24.7258 66.3793 25.2272 65.4975 25.2964 65.3591 25.3656 65.2208 25.5212 64.9442 25.6422 64.754 25.9535 64.218 27.4059 61.7281 27.8036 61.0019 28.1494 60.3967 31.694 54.2239 35.2386 48.0684 36.1377 46.4949 37.0714 44.8696 37.3135 44.4373 37.5556 44.005 38.0743 43.1232 38.472 42.4489 38.8524 41.7918 39.2328 41.1175 39.3019 40.9791 39.3711 40.8408 39.5267 40.5642 39.6478 40.374 39.959 39.8552 41.7054 36.8294 42.1031 36.1204 42.2932 35.7746 43.7803 33.1637 45.3883 30.328 47.9819 25.746 48.4661 25.0198 49.5554 23.9304 50.8868 22.5818 51.9934 21.9766 53.9991 21.4406 55.4688 21.0429 56.5409 21.0256 57.4918 21.3541 57.8722 21.4924 58.3391 21.6135 58.5466 21.6135 58.7368 21.6135 59.048 21.7345 59.2382 21.8728 59.4111 22.0112 59.6705 22.1322 59.7915 22.1322 59.9126 22.1322 61.365 22.9276 62.9903 23.9131 64.6329 24.8987 66.0854 25.746 66.2237 25.7978 66.362 25.8497 67.1228 26.282 67.9009 26.7315 69.2323 27.5442 69.8029 27.8554 72.189 29.1868 72.7596 29.4981 73.4167 29.8958 73.6587 30.0514 74.2466 30.4491 74.7308 30.743 75.042 30.8986 75.1803 30.9678 75.993 31.4346 76.8575 31.9534 77.7048 32.4721 78.552 32.9562 78.7595 33.0427 78.9497 33.1291 79.3474 33.3539 79.624 33.5441 79.918 33.7343 80.2984 33.9591 80.4886 34.0628 80.6788 34.1493 80.9554 34.3049 81.0938 34.4087 81.7508 34.8236 84.6557 36.5354 84.9842 36.6737 85.1744 36.7602 85.5721 36.985 85.8487 37.1752 86.1427 37.3654 86.5231 37.5902 86.7133 37.6939 86.9035 37.7804 87.2147 37.9706 87.4049 38.0743 87.6988 38.2645 88.2521 38.6103 89.4279 39.3365 89.5835 39.423 90.085 39.6996 90.5518 39.9417 94.1137 41.7745 95.7909 44.4373 95.7909 48.345 95.7909 50.6274 95.3068 52.0107 93.5258 54.8118 93.4394 54.9501 93.3183 55.1922 93.2492 55.3305 93.1109 55.6072 90.7074 59.7569 90.4308 60.1719 90.327 60.3102 90.206 60.5523 90.1368 60.6906 90.0158 60.9673 88.1138 64.2353 87.8372 64.6675 87.7334 64.8058 87.6124 65.0479 87.5432 65.1862 87.4741 65.3246 86.8689 66.3793 86.1945 67.5205 85.5202 68.6617 84.915 69.7164 84.8459 69.8548 84.7767 69.9931 84.6211 70.2697 84.5 70.4599 84.379 70.6501 83.8603 71.5492 83.3416 72.4484 82.8228 73.3475 82.3041 74.2466 82.1831 74.4368 82.062 74.627 81.9237 74.9037 81.8373 75.042 81.7681 75.1803 81.3877 75.8547 80.9727 76.529 80.5577 77.2033 80.2292 77.8258 80.2292 77.8777 80.2292 77.9468 80.0909 78.2062 79.9007 78.4656 79.6068 78.8978 77.4627 82.5635 76.5982 84.1196 76.0449 85.1052 74.5406 87.6988 74.3504 88.0101 74.2466 88.1484 74.1083 88.425 74.0218 88.6152 73.9354 88.8055 73.6587 89.255 73.4167 89.6181 73.1746 89.9812 72.9671 90.3097 72.9671 90.3443 72.9671 90.3789 72.3792 91.3991 71.6703 92.5921 70.9614 93.8025 70.3735 94.8226 70.3735 94.8399 70.3735 94.8745 69.6473 96.1367 68.7481 97.641 67.6588 99.4739 66.8116 100.684 66.1718 101.324 65.1517 102.327 63.4226 103.364 62.4197 103.589 62.0912 103.658 61.5033 103.797 61.1229 103.9 60.1892 104.142 59.6013 104.108 58.2181 103.745Z" fill="#2F5597" transform="matrix(0.882265 0.474653 0.47378 -0.880643 207.502 1509.92)"/></g></g></g><g><g><g><path d="M56.2333 100.208C54.9473 99.8571 53.8617 99.3227 51.6404 97.9698 50.7887 97.4521 50.0538 97.0346 50.0037 97.0346 49.9369 97.0346 48.9682 96.4667 47.8158 95.782 46.6801 95.0972 45.7115 94.5294 45.6614 94.5294 45.6113 94.5294 44.8263 94.0784 43.9077 93.5273 42.9892 92.9762 42.2042 92.5252 42.1541 92.5252 42.104 92.5252 41.1353 91.9574 39.9829 91.2726 38.8305 90.5879 37.8619 90.02 37.8118 90.02 37.7783 90.02 36.793 89.4522 35.6406 88.7674 34.4882 88.0827 33.5028 87.5148 33.4527 87.5148 33.4026 87.5148 32.6176 87.0639 31.6991 86.5127 30.7972 85.9616 30.0122 85.5107 29.9454 85.5107 29.8953 85.5107 28.9267 84.9428 27.7743 84.2581 26.6386 83.5733 25.6699 83.0055 25.6198 83.0055 25.5697 83.0055 24.8849 82.6046 24.0833 82.137 20.8265 80.183 19.3234 77.7279 19.3067 74.4043 19.29 72.3166 19.7242 71.1476 21.7451 67.8407 22.0958 67.2729 22.3797 66.7718 22.3797 66.7384 22.3797 66.6883 22.814 65.92 23.3484 65.0182 23.8829 64.1163 24.3672 63.2645 24.434 63.1309 24.5008 62.9973 24.6511 62.7301 24.768 62.5464 25.0687 62.0286 26.4716 59.6237 26.8557 58.9222 27.1897 58.3377 30.6135 52.3753 34.0373 46.4296 34.9057 44.9098 35.8076 43.3399 36.0414 42.9223 36.2752 42.5048 36.7763 41.653 37.1604 41.0017 37.5278 40.3671 37.8953 39.7157 37.9621 39.5821 38.0289 39.4485 38.1792 39.1813 38.2961 38.9975 38.5967 38.4965 40.2835 35.5738 40.6677 34.889 40.8514 34.555 42.2877 32.0331 43.8409 29.2941 46.3461 24.8682 46.8138 24.1668 47.8659 23.1146 49.1519 21.8119 50.2208 21.2274 52.1582 20.7096 53.5778 20.3255 54.6133 20.3088 55.5318 20.6261 55.8993 20.7597 56.3502 20.8766 56.5506 20.8766 56.7343 20.8766 57.035 20.9935 57.2187 21.1271 57.3857 21.2608 57.6362 21.3777 57.7531 21.3777 57.87 21.3777 59.2729 22.1459 60.8428 23.0979 62.4295 24.0499 63.8324 24.8682 63.966 24.9183 64.0996 24.9684 64.8345 25.386 65.586 25.8202 66.872 26.6052 67.4232 26.9058 69.7279 28.1918 70.2791 28.4924 70.9137 28.8766 71.1476 29.0269 71.7154 29.411 72.183 29.6949 72.4837 29.8452 72.6173 29.912 73.4022 30.363 74.2373 30.864 75.0557 31.365 75.874 31.8327 76.0744 31.9162 76.2581 31.9997 76.6423 32.2168 76.9095 32.4005 77.1934 32.5842 77.5609 32.8014 77.7446 32.9016 77.9283 32.9851 78.1955 33.1354 78.3291 33.2356 78.9638 33.6364 81.7696 35.2899 82.0869 35.4235 82.2706 35.507 82.6547 35.7241 82.922 35.9078 83.2059 36.0915 83.5733 36.3086 83.757 36.4088 83.9408 36.4923 84.2414 36.6761 84.4251 36.7763 84.709 36.96 85.2435 37.294 86.3791 37.9955 86.5294 38.079 87.0138 38.3462 87.4647 38.58 90.9052 40.3503 92.5252 42.9223 92.5252 46.6968 92.5252 48.9014 92.0576 50.2375 90.3373 52.9431 90.2538 53.0767 90.1369 53.3106 90.0701 53.4442 89.9365 53.7114 87.615 57.7197 87.3478 58.1205 87.2476 58.2541 87.1307 58.488 87.0639 58.6216 86.947 58.8888 85.1098 62.0453 84.8426 62.4629 84.7424 62.5965 84.6255 62.8303 84.5587 62.9639 84.4919 63.0975 83.9073 64.1163 83.256 65.2186 82.6046 66.3209 82.0201 67.3397 81.9533 67.4733 81.8865 67.6069 81.7362 67.8741 81.6193 68.0578 81.5024 68.2415 81.0013 69.11 80.5003 69.9785 79.9992 70.8469 79.4982 71.7154 79.3813 71.8991 79.2644 72.0828 79.1308 72.35 79.0473 72.4837 78.9805 72.6173 78.613 73.2686 78.2122 73.92 77.8114 74.5713 77.494 75.1726 77.494 75.2227 77.494 75.2895 77.3604 75.54 77.1767 75.7905 76.8928 76.208 74.8218 79.7487 73.9868 81.2518 73.4523 82.2038 71.9993 84.709 71.8156 85.0096 71.7154 85.1432 71.5818 85.4105 71.4983 85.5942 71.4148 85.7779 71.1476 86.2121 70.9137 86.5629 70.6799 86.9136 70.4795 87.2309 70.4795 87.2643 70.4795 87.2977 69.9117 88.2831 69.2269 89.4355 68.5422 90.6046 67.9743 91.59 67.9743 91.6067 67.9743 91.6401 67.2729 92.8592 66.4044 94.3123 65.3522 96.0826 64.5338 97.2517 63.9159 97.8696 62.9305 98.8383 61.2604 99.8404 60.2917 100.058 59.9744 100.124 59.4065 100.258 59.0391 100.358 58.1372 100.592 57.5694 100.559 56.2333 100.208Z" fill="#002060" transform="matrix(1.00504 0 0 -1 199.689 1542.83)"/></g></g></g></g></svg>