<svg width="246" height="246" xmlns="http://www.w3.org/2000/svg" xmlns:xlink="http://www.w3.org/1999/xlink" xml:space="preserve" overflow="hidden"><g transform="translate(-38 -1632)"><path d="M40.5001 1755C40.5001 1688.45 94.4497 1634.5 161 1634.5 227.55 1634.5 281.5 1688.45 281.5 1755 281.5 1821.55 227.55 1875.5 161 1875.5 94.4497 1875.5 40.5001 1821.55 40.5001 1755Z" stroke="#172C51" stroke-width="4.58333" stroke-miterlimit="8" fill="#2F5597" fill-rule="evenodd"/><path d="M93.0002 1754C93.0002 1716.44 123.445 1686 161 1686 198.555 1686 229 1716.44 229 1754 229 1791.56 198.555 1822 161 1822 123.445 1822 93.0002 1791.56 93.0002 1754Z" fill="#FFFFFF" fill-rule="evenodd"/><path d="M73.9999 1753.5C73.9999 1705.18 112.951 1666 161 1666 209.049 1666 248 1705.18 248 1753.5 248 1801.82 209.049 1841 161 1841 112.951 1841 73.9999 1801.82 73.9999 1753.5ZM83.3001 1753.5C83.3001 1796.69 118.087 1831.7 161 1831.7 203.912 1831.7 238.7 1796.69 238.7 1753.5 238.7 1710.31 203.912 1675.3 161 1675.3 118.087 1675.3 83.3001 1710.31 83.3001 1753.5Z" fill="#FFFFFF" fill-rule="evenodd"/><g><g><g><path d="M51.2356 84.5235C49.6494 84.0454 48.3457 82.5896 48.0849 80.9817 47.9111 79.8953 47.7156 79.7867 43.5654 78.6785 42.4356 78.3526 36.6558 76.723 35.5259 76.3753 33.8963 75.8756 30.6153 74.9412 29.8765 74.7457 29.2464 74.5936 24.1402 73.1378 21.837 72.4642 18.9037 71.6168 17.8607 71.2039 17.0785 70.6173 16.0138 69.8133 15.1447 68.6183 14.558 67.1625 14.1235 66.0109 14.1017 65.837 14.1669 49.2365L14.2321 32.484 14.9709 31.0064C16.079 28.7901 17.6435 27.6385 20.1857 27.1605 21.9022 26.8346 78.9175 26.8563 80.4385 27.1822 83.2849 27.7906 85.2622 29.5941 85.9575 32.2667 86.3486 33.7007 86.3486 37.9378 85.9575 39.9802 85.2405 43.6523 83.5674 46.4336 80.721 48.6064 78.9175 49.9753 77.2227 50.7141 74.0938 51.4963 73.0726 51.7353 71.9644 52.0395 71.5951 52.1481 71.2474 52.2568 69.8785 52.6044 68.5531 52.9086 67.2494 53.2346 65.8805 53.5822 65.5111 53.6909 65.1635 53.7995 63.2514 54.2993 61.2741 54.799 57.7975 55.6899 57.5585 55.7333 53.3215 55.842 49.4756 55.9289 48.8889 55.9941 48.4978 56.3417 47.3679 57.363 47.3679 59.036 48.476 60.1007L49.1279 60.7309 53.0825 60.796C55.8202 60.8395 57.0805 60.9481 57.1891 61.122 57.4064 61.4696 57.4064 64.7941 57.1891 65.1417 57.0588 65.3373 55.9941 65.4242 53.1042 65.4677 48.6933 65.5111 48.237 65.6632 47.7807 67.1842 47.4548 68.1837 47.6721 68.9877 48.4543 69.7699L49.0627 70.4 52.9738 70.4C56.1244 70.4 56.9284 70.4652 57.1457 70.7259 57.3412 70.9649 57.3847 72.3773 57.3195 76.2015 57.2543 81.0469 57.2109 81.438 56.7546 82.2854 55.7333 84.1975 53.3649 85.1753 51.2356 84.5235Z" fill="#002060" transform="matrix(1.00953 0 0 -1 111 1796)"/><path d="M90.9116 22.6193C89.6948 21.8805 89.2385 20.9679 89.0864 19.0341 88.9343 16.9699 88.5432 16.1007 87.4133 15.3185L86.5877 14.7753 80.482 14.7753C74.8543 14.7753 74.3546 14.797 74.2025 15.1447 74.1373 15.362 74.0721 16.8612 74.0938 18.4691 74.1156 20.077 74.1156 21.5328 74.1156 21.6849 74.0938 21.9022 73.3551 21.9457 70.7911 21.9022L67.4667 21.837 67.358 18.3605 67.2494 14.884 48.9975 14.884 30.7457 14.884 30.7022 18.2301C30.6805 20.0553 30.5719 21.6632 30.4632 21.7719 30.3546 21.8805 28.877 21.924 27.1388 21.9022L24.0099 21.837 23.9012 18.3605 23.7926 14.884 18.0346 14.7753C13.1674 14.6884 12.1462 14.6015 11.4074 14.2756 8.82173 13.1457 8.75654 9.36494 11.2988 8.10469L12.2548 7.60494 49.1062 7.60494C80.96 7.60494 86.1314 7.6484 87.3481 7.93086 89.1951 8.36543 90.2598 8.82173 91.6069 9.82123 93.8449 11.4291 95.1704 13.602 95.7353 16.5353 96.1264 18.643 96.0612 20.0119 95.4746 21.2069 94.6923 22.8148 92.3891 23.5319 90.9116 22.6193Z" fill="#002060" transform="matrix(1.00953 0 0 -1 111 1796)"/></g></g></g></g></svg>