<svg width="245" height="245" xmlns="http://www.w3.org/2000/svg" xmlns:xlink="http://www.w3.org/1999/xlink" xml:space="preserve" overflow="hidden"><g transform="translate(-151 -1090)"><path d="M153.5 1212.5C153.5 1146.23 207.226 1092.5 273.5 1092.5 339.774 1092.5 393.5 1146.23 393.5 1212.5 393.5 1278.77 339.774 1332.5 273.5 1332.5 207.226 1332.5 153.5 1278.77 153.5 1212.5Z" stroke="#172C51" stroke-width="4.58333" stroke-miterlimit="8" fill="#2F5597" fill-rule="evenodd"/><path d="M205 1212C205 1174.44 235.445 1144 273 1144 310.555 1144 341 1174.44 341 1212 341 1249.56 310.555 1280 273 1280 235.445 1280 205 1249.56 205 1212Z" fill="#FFFFFF" fill-rule="evenodd"/><path d="M186 1211C186 1162.4 224.951 1123 273 1123 321.049 1123 360 1162.4 360 1211 360 1259.6 321.049 1299 273 1299 224.951 1299 186 1259.6 186 1211ZM195.3 1211C195.3 1254.46 230.088 1289.7 273 1289.7 315.912 1289.7 350.7 1254.46 350.7 1211 350.7 1167.54 315.912 1132.3 273 1132.3 230.088 1132.3 195.3 1167.54 195.3 1211Z" fill="#FFFFFF" fill-rule="evenodd"/><g><g><g><path d="M36.5001 41.7144C48.0192 41.7144 57.3573 32.3763 57.3573 20.8572 57.3573 9.33809 48.0192-4.63123e-15 36.5001-4.63123e-15 24.981-4.63123e-15 15.6429 9.33809 15.6429 20.8572 15.6429 32.3763 24.981 41.7144 36.5001 41.7144ZM29.0534 49.5359C13.0032 49.5359 0 62.539 0 78.5893 0 81.2616 2.16719 83.4288 4.83952 83.4288L68.1607 83.4288C70.833 83.4288 73.0002 81.2616 73.0002 78.5893 73.0002 62.539 59.9971 49.5359 43.9468 49.5359L29.0534 49.5359Z" fill="#002060" transform="matrix(1 0 0 1.00684 238 1167)"/></g></g></g></g></svg>