<svg width="246" height="246" xmlns="http://www.w3.org/2000/svg" xmlns:xlink="http://www.w3.org/1999/xlink" xml:space="preserve" overflow="hidden"><g transform="translate(-1532 -1880)"><path d="M1534.5 2003C1534.5 1936.45 1588.45 1882.5 1655 1882.5 1721.55 1882.5 1775.5 1936.45 1775.5 2003 1775.5 2069.55 1721.55 2123.5 1655 2123.5 1588.45 2123.5 1534.5 2069.55 1534.5 2003Z" stroke="#172C51" stroke-width="4.58333" stroke-miterlimit="8" fill="#2F5597" fill-rule="evenodd"/><path d="M1588 2002C1588 1964.44 1618.22 1934 1655.5 1934 1692.78 1934 1723 1964.44 1723 2002 1723 2039.56 1692.78 2070 1655.5 2070 1618.22 2070 1588 2039.56 1588 2002Z" fill="#FFFFFF" fill-rule="evenodd"/><path d="M1568 2001.5C1568 1953.18 1607.18 1914 1655.5 1914 1703.83 1914 1743 1953.18 1743 2001.5 1743 2049.83 1703.83 2089 1655.5 2089 1607.18 2089 1568 2049.83 1568 2001.5ZM1577.35 2001.5C1577.35 2044.66 1612.34 2079.65 1655.5 2079.65 1698.66 2079.65 1733.65 2044.66 1733.65 2001.5 1733.65 1958.34 1698.66 1923.35 1655.5 1923.35 1612.34 1923.35 1577.35 1958.34 1577.35 2001.5Z" fill="#FFFFFF" fill-rule="evenodd"/><g><g><g><path d="M55.2735 91.1849C53.5623 90.6692 52.1559 89.0987 51.8746 87.3641 51.6871 86.192 51.4761 86.0748 46.9989 84.8793 45.78 84.5277 39.5447 82.7697 38.3258 82.3946 36.5677 81.8555 33.0282 80.8475 32.2312 80.6365 31.5514 80.4725 26.0428 78.9019 23.5581 78.1752 20.3935 77.261 19.2684 76.8157 18.4245 76.1828 17.2759 75.3155 16.3383 74.0262 15.7054 72.4557 15.2366 71.2133 15.2131 71.0258 15.2834 53.117L15.3538 35.0441 16.1507 33.4501C17.3462 31.0591 19.034 29.8168 21.7766 29.3011 23.6284 28.9495 85.1372 28.9729 86.778 29.3245 89.8488 29.9809 91.9819 31.9264 92.732 34.8097 93.1539 36.3568 93.1539 40.9277 92.732 43.1312 91.9585 47.0927 90.1535 50.0931 87.0828 52.4372 85.1372 53.914 83.3088 54.7109 79.9333 55.5548 78.8316 55.8127 77.6361 56.1408 77.2376 56.258 76.8626 56.3753 75.3858 56.7503 73.9559 57.0785 72.5494 57.4301 71.0727 57.8051 70.6742 57.9223 70.2991 58.0396 68.2363 58.5787 66.1032 59.1178 62.3527 60.0789 62.0948 60.1258 57.5239 60.243 53.3748 60.3368 52.7419 60.4071 52.32 60.7821 51.1011 61.8839 51.1011 63.6888 52.2965 64.8374L52.9998 65.5172 57.266 65.5875C60.2196 65.6344 61.5791 65.7516 61.6963 65.9391 61.9307 66.3142 61.9307 69.9006 61.6963 70.2757 61.5557 70.4866 60.4071 70.5804 57.2894 70.6273 52.531 70.6742 52.0387 70.8383 51.5464 72.4791 51.1948 73.5574 51.4292 74.4247 52.2731 75.2686L52.9294 75.9484 57.1488 75.9484C60.5477 75.9484 61.415 76.0187 61.6494 76.3 61.8604 76.5578 61.9073 78.0815 61.837 82.2071 61.7666 87.4344 61.7198 87.8563 61.2275 88.7705 60.1258 90.8333 57.5707 91.8881 55.2735 91.1849Z" fill="#2E5496" transform="matrix(1 0 0 -1.00068 1604 2048)"/><path d="M98.0765 24.4019C96.7638 23.6049 96.2716 22.6204 96.1075 20.5342 95.9434 18.3073 95.5215 17.3697 94.3026 16.5258L93.4118 15.9398 86.8249 15.9398C80.7537 15.9398 80.2146 15.9632 80.0505 16.3383 79.9802 16.5727 79.9099 18.1901 79.9333 19.9247 79.9567 21.6593 79.9567 23.2299 79.9567 23.394 79.9333 23.6284 79.1363 23.6753 76.3703 23.6284L72.7839 23.5581 72.6666 19.8075 72.5494 16.057 52.8591 16.057 33.1688 16.057 33.1219 19.6669C33.0985 21.6359 32.9813 23.3705 32.8641 23.4877 32.7469 23.6049 31.1529 23.6518 29.2776 23.6284L25.9021 23.5581 25.7849 19.8075 25.6677 16.057 19.4559 15.9398C14.2052 15.846 13.1034 15.7523 12.3064 15.4006 9.51699 14.1817 9.44666 10.103 12.1892 8.74344L13.2206 8.2043 52.9763 8.2043C87.3406 8.2043 92.9195 8.25118 94.2322 8.55591 96.2247 9.02473 97.3733 9.51699 98.8266 10.5953 101.241 12.3299 102.671 14.674 103.28 17.8385 103.702 20.1123 103.632 21.589 102.999 22.8783 102.155 24.6129 99.6705 25.3864 98.0765 24.4019Z" fill="#2E5496" transform="matrix(1 0 0 -1.00068 1604 2048)"/></g></g></g></g></svg>